<svg id="Layer_1" data-name="Layer 1" xmlns="http://www.w3.org/2000/svg" viewBox="0 0 285.08 285"><defs><style>.cls-1,.cls-2{fill:#0087be;}.cls-2,.cls-3{fill-rule:evenodd;}.cls-3{fill:#f60;}</style></defs><title>Hub2Word_bug</title><path class="cls-1" d="M55.84,56.14A120.7,120.7,0,1,0,95.21,29.79,121.46,121.46,0,0,0,55.84,56.14ZM19.7,91.49a132.14,132.14,0,1,1-10,50.43,132.13,132.13,0,0,1,10-50.43Z"/><path class="cls-2" d="M75.48,60.4l39.06,28.72a58.89,58.89,0,0,1,17.79-5.81l-.16-46a104.48,104.48,0,0,0-56.69,23Z"/><path class="cls-2" d="M150.67,37.33l.16,46a59.33,59.33,0,1,1-44.35,106.42L73.9,222.13a105,105,0,1,0,76.78-184.8Z"/><path class="cls-2" d="M82.29,141.92A59.13,59.13,0,0,1,99,100.68L62,73.5A105,105,0,0,0,60.85,209l32.6-32.43a59.06,59.06,0,0,1-11.16-34.63Z"/><path class="cls-3" d="M118.44,118.74a32.79,32.79,0,1,0,23.18-9.6,32.69,32.69,0,0,0-23.18,9.6Z"/></svg>