<?xml version="1.0" encoding="utf-8"?>
<!-- Generator: Adobe Illustrator 22.1.0, SVG Export Plug-In . SVG Version: 6.00 Build 0)  -->
<svg version="1.1" id="Layer_1" xmlns="http://www.w3.org/2000/svg" xmlns:xlink="http://www.w3.org/1999/xlink" x="0px" y="0px"
	 viewBox="0 0 612 612" style="enable-background:new 0 0 612 612;" xml:space="preserve">
<style type="text/css">
	.st0{fill:#0087BE;}
	.st1{fill:#FF6600;}
	.st2{fill:#4D4D4D;}
</style>
<title>logo</title>
<path class="st0" d="M219.8,168.1c-47,47.2-46.9,123.7,0.3,170.7s123.7,46.9,170.7-0.3s46.9-123.7-0.3-170.7
	c-34.5-34.4-86.3-44.6-131.3-26C244.4,147.9,231,156.9,219.8,168.1L219.8,168.1z M183.6,203.5c27.8-67.5,105.1-99.6,172.6-71.7
	s99.6,105.1,71.7,172.6s-105.1,99.6-172.6,71.7c-49.5-20.4-81.7-68.6-81.7-122.1C173.6,236.6,177,219.5,183.6,203.5z"/>
<path class="st0" d="M239.4,172.4l39.1,28.7c5.6-2.9,11.6-4.8,17.8-5.8l-0.2-46C275.3,151.1,255.6,159.2,239.4,172.4L239.4,172.4z"
	/>
<path class="st0" d="M314.6,149.3l0.2,46c32.4,5.1,54.5,35.4,49.5,67.8s-35.4,54.5-67.8,49.5c-9.4-1.5-18.3-5.2-26-10.8l-32.6,32.4
	c44.3,37.4,110.5,31.9,148-12.4s31.9-110.5-12.4-148C356.8,159.7,336.3,151.2,314.6,149.3L314.6,149.3z"/>
<path class="st0" d="M246.2,253.9c0-15.4,6-30.2,16.7-41.2l-37-27.2c-33.4,38.8-33.8,96.1-1.1,135.5l32.6-32.4
	C250.1,278.5,246.2,266.4,246.2,253.9L246.2,253.9z"/>
<path class="st1" d="M282.4,230.7c-12.8,12.8-12.8,33.6,0,46.4s33.6,12.8,46.4,0c12.8-12.8,12.8-33.6,0-46.4
	c-6.2-6.2-14.5-9.6-23.2-9.6C296.8,221.1,288.5,224.6,282.4,230.7z"/>
<path class="st2" d="M307.9,487.1c0.8,2.4,1.2,3.4,2.1,3.4c1.1,0,1.5-1.1,3.3-4.8c3.9-8.4,16-40.6,17.8-45.3h0.2l19,45.6
	c1.4,3.4,1.9,4.5,2.8,4.5c1.2,0,1.6-1.1,2.6-4.3c4.5-13.7,14-42.6,18.2-54.1c1.9-5.2,2.9-8.8,5.1-9.7c1-0.3,2.1-0.5,3.2-0.5
	c0.8,0,1.3-0.3,1.3-0.9s-0.6-0.7-1.6-0.7c-3,0-6.9,0.3-7.6,0.3c-0.8,0-4.6-0.3-9.5-0.3c-1.4,0-2.1,0.2-2.1,0.8s0.6,0.8,1.5,0.8
	c3.5,0,4.4,1.3,4.4,2.7c-0.1,1.8-0.4,3.6-0.9,5.3c-3.2,10.7-10.5,34.7-12.1,40.8h-0.3l-19-45.9c-1.2-2.9-1.6-4.3-2.6-4.3
	c-0.7,0-1.4,0.7-2.3,3.3l-17.7,47.5h-0.3c-1.6-5.1-10.1-32.7-11.7-38.8c-1.1-4-2-7.1-2-8.3c0-1,0.2-1.6,1-2c0.7-0.3,1.5-0.4,2.3-0.3
	c0.9,0,1.6-0.1,1.6-0.8c0-0.5-0.6-0.8-1.9-0.8c-5.3,0-9.3,0.3-10.1,0.3s-5.8-0.3-10.6-0.3c-1.3,0-2,0.2-2,0.8s0.5,0.8,1.5,0.8
	c1.3,0,2.5,0.3,3.6,0.8c1.3,0.9,2.3,3.1,3.4,6.5L307.9,487.1L307.9,487.1z M408.4,490.2c20.7,0,33.6-13.9,33.6-31.7
	s-12.6-29-32.8-29c-24.3,0-33.6,17.1-33.6,30.3C375.6,473.6,385.1,490.2,408.4,490.2L408.4,490.2z M411.7,486
	c-15.1,0-24.2-12.6-24.2-28.5c0-19.1,10.5-23.9,19.4-23.9c12.9,0,23.2,10.6,23.2,27.7C430.1,483.4,417.3,486,411.7,486L411.7,486z
	 M451.2,466.7c0,7.1,0,13.2-0.4,16.5c-0.3,2.3-0.7,3.7-2.4,4.1c-0.9,0.2-1.9,0.3-2.8,0.3c-1,0-1.3,0.5-1.3,0.8
	c0,0.5,0.5,0.8,1.5,0.8c3.2,0,8.3-0.3,9.8-0.3c1.2,0,7.8,0.3,12.5,0.3c1,0,1.6-0.3,1.6-0.8c-0.1-0.5-0.5-0.9-1-0.8
	c-1.3,0-2.6-0.1-3.9-0.3c-2.5-0.4-2.8-1.8-3.1-4.1c-0.4-3.3-0.5-9.3-0.5-16.5v-1.1c0-0.3,0.2-0.6,0.5-0.6c0,0,0.1,0,0.1,0l7.2,0.2
	c0.5,0,1.1,0.2,1.5,0.5c1,1.2,4.4,6.4,7.6,10.6c4.5,6,7.5,9.7,10.9,11.4c2.1,1.1,4.3,1.5,8.8,1.5h7.6c1,0,1.5-0.2,1.5-0.8
	c-0.1-0.5-0.5-0.9-1-0.8c-0.6,0-1.3,0-1.9-0.2c-1.3-0.3-4.1-0.6-8.6-5.1c-4.8-4.8-10.5-11.9-17.6-20.6c7.8-6.3,11.1-11.4,11.1-17.1
	c-0.1-4.2-2.2-8.2-5.6-10.7c-4.3-2.8-10.1-3.3-15.2-3.3c-2.5,0-9.8,0.2-12.5,0.2c-1.6,0-6.7-0.2-10.9-0.2c-1.2,0-1.8,0.2-1.8,0.7
	s0.5,0.8,1.4,0.8c1.1,0,2.1,0.1,3.2,0.3c2.5,0.7,3.3,1.5,3.5,4.2c0.1,2.5,0.1,4.6,0.1,16.4L451.2,466.7L451.2,466.7z M461.5,436
	c0-0.6,0.2-0.9,0.7-1.1c1.6-0.2,3.2-0.3,4.7-0.3c4.7,0,12.2,2.8,12.2,13.8c0,6.4-2.7,9.8-5.2,11.5c-1.4,1-2.5,1.3-5.6,1.3
	c-2.1,0-4.1-0.2-6.1-0.7c-0.5-0.3-0.7-0.5-0.7-1.4L461.5,436L461.5,436z M509,466.7c0,7.1,0,13.2-0.4,16.5c-0.3,2.3-0.7,3.7-2.4,4.1
	c-0.9,0.2-1.9,0.3-2.8,0.3c-1,0-1.3,0.5-1.3,0.8c0,0.5,0.5,0.8,1.5,0.8c1.6,0,3.6-0.1,5.6-0.2s3.6-0.1,4.6-0.1c2,0,4.9,0.2,8.1,0.5
	s6.7,0.5,9.6,0.5c14.8,0,23.2-5.5,26.9-9.1c5.7-5.7,8.9-13.5,8.8-21.6c0-9.2-3.5-15.7-7.6-19.7c-8.8-8.8-22.2-8.8-32.3-8.8
	c-4.8,0-10.6,0.2-13,0.2c-2.3,0-7.4-0.2-11.6-0.2c-1.2,0-1.8,0.2-1.8,0.7s0.5,0.8,1.4,0.8c1.1,0,2.1,0.1,3.2,0.3
	c2.5,0.7,3.3,1.5,3.5,4.2c0.1,2.5,0.1,4.6,0.1,16.4L509,466.7L509,466.7z M519.7,451.9c0-6.1,0-12.5,0.1-15.1
	c-0.1-0.7,0.3-1.4,1-1.5c1.6-0.4,3.3-0.6,4.9-0.5c6.3,0,15,0.8,22.4,7.4c3.5,3.1,7.5,9.5,7.5,19.3c0,8-1.6,14.9-6.8,19.2
	c-4.8,4-10.2,5.3-17.5,5.3c-6.3,0-9.5-1.6-10.5-3.1c-0.6-0.8-0.8-3.5-0.9-5.5c-0.1-1.5-0.2-7.5-0.2-15.7V451.9L519.7,451.9z"/>
<path class="st2" d="M163.9,434.8v28.8c0,6.8-2.7,13.3-7.6,18.1l0,0c-4.8,4.8-11.3,7.5-18.1,7.5l0,0c-6.8,0-13.3-2.7-18.1-7.5l0,0
	c-4.8-4.8-7.5-11.3-7.6-18.1v-28.8h12.8v28.8c0,7.1,5.8,12.9,12.9,12.9l0,0c7.1,0,12.9-5.8,12.9-12.9v-28.8H163.9z"/>
<polygon class="st2" points="104.3,486.7 104.3,413 90.5,413 90.5,444.1 57.9,444.1 57.9,413 44,413 44,486.7 57.9,486.7 57.9,457 
	90.5,457 90.5,486.7 104.3,486.7 "/>
<path class="st2" d="M198.8,435.1c7.2,0,14,2.9,19.1,7.9l0,0c10.6,10.5,10.6,27.6,0,38.2c0,0,0,0,0,0l0,0
	c-10.5,10.6-27.6,10.6-38.2,0c0,0,0,0,0,0l0,0c-5.1-5.1-7.9-11.9-7.9-19.1V413h12.8v26.2C188.8,436.5,193.8,435.1,198.8,435.1
	L198.8,435.1z M208.9,452.1c-5.6-5.5-14.6-5.5-20.2,0l0,0c-5.5,5.6-5.5,14.6,0,20.2l0,0c5.6,5.5,14.6,5.5,20.2,0l0,0
	C214.4,466.7,214.4,457.7,208.9,452.1L208.9,452.1z"/>
<path class="st2" d="M247.6,443.3h-11.9c0.3-6.9,2.5-12.4,6.5-16.4s9.2-6,15.5-6c3.6-0.1,7.1,0.8,10.3,2.5c3,1.7,5.5,4.1,7.1,7.1
	c1.7,2.9,2.6,6.1,2.7,9.5c-0.1,4.3-1.2,8.5-3.2,12.3c-2.2,4.4-6.1,9.6-11.9,15.6l-7.2,7.6h22.9v11.3h-44.5v-5.8l19.9-20.2
	c4.8-4.9,8-8.8,9.6-11.7c1.4-2.4,2.3-5.2,2.4-8c0.1-2.3-0.8-4.5-2.5-6.1c-1.7-1.6-4-2.5-6.4-2.4c-2.5,0-4.9,1-6.6,2.9
	C248.5,437.5,247.5,440.4,247.6,443.3L247.6,443.3z"/>
</svg>
