<svg id="Layer_1" data-name="Layer 1" xmlns="http://www.w3.org/2000/svg" viewBox="0 0 612 396"><defs><style>.cls-1,.cls-2{fill:#0087be;}.cls-2,.cls-3,.cls-4{fill-rule:evenodd;}.cls-3{fill:#f60;}.cls-4,.cls-5{fill:#4d4d4d;}</style></defs><title>logo</title><path class="cls-1" d="M219.76,60.14a120.7,120.7,0,1,0,39.37-26.35,121.46,121.46,0,0,0-39.37,26.35ZM183.62,95.49a132.14,132.14,0,1,1-10,50.43,132.13,132.13,0,0,1,10-50.43Z"/><path class="cls-2" d="M239.4,64.4l39.06,28.72a58.89,58.89,0,0,1,17.79-5.81l-.16-46a104.48,104.48,0,0,0-56.69,23Z"/><path class="cls-2" d="M314.59,41.33l.16,46A59.33,59.33,0,1,1,270.4,193.72l-32.58,32.41a105,105,0,1,0,76.78-184.8Z"/><path class="cls-2" d="M246.21,145.92a59.13,59.13,0,0,1,16.68-41.24l-37-27.18A105,105,0,0,0,224.77,213l32.6-32.43a59.06,59.06,0,0,1-11.16-34.63Z"/><path class="cls-3" d="M282.35,122.74a32.79,32.79,0,1,0,23.18-9.6,32.69,32.69,0,0,0-23.18,9.6Z"/><path class="cls-4" d="M307.86,379.12c.82,2.37,1.18,3.37,2.1,3.37,1.09,0,1.55-1.09,3.28-4.83,3.92-8.38,16-40.64,17.77-45.29h.18l19,45.65c1.37,3.37,1.91,4.46,2.82,4.46,1.18,0,1.64-1.09,2.64-4.28,4.46-13.67,14-42.65,18.22-54.13,1.91-5.19,2.92-8.84,5.1-9.66a10,10,0,0,1,3.19-.46c.82,0,1.28-.27,1.28-.91s-.64-.73-1.64-.73c-3,0-6.93.27-7.56.27-.82,0-4.65-.27-9.48-.27-1.37,0-2.1.18-2.1.82s.64.82,1.55.82c3.55,0,4.37,1.28,4.37,2.73a19.38,19.38,0,0,1-.91,5.28c-3.19,10.66-10.48,34.72-12.12,40.82h-.27l-19-45.91c-1.18-2.93-1.64-4.3-2.64-4.3-.73,0-1.37.73-2.28,3.29l-17.68,47.52h-.27c-1.64-5.1-10.11-32.74-11.66-38.77-1.09-4-2-7.12-2-8.31,0-1,.18-1.64,1-2A4.81,4.81,0,0,1,303,314c.91,0,1.64-.09,1.64-.82q0-.82-1.91-.82c-5.28,0-9.29.27-10.11.27s-5.83-.27-10.57-.27c-1.28,0-2,.18-2,.82s.55.82,1.46.82a8.07,8.07,0,0,1,3.64.82c1.28.91,2.28,3.1,3.37,6.47l19.32,57.86Zm100.53,3.1c20.68,0,33.62-13.94,33.62-31.71s-12.57-29-32.8-29c-24.33,0-33.62,17.13-33.62,30.34,0,13.76,9.48,30.34,32.8,30.34Zm3.28-4.19c-15.13,0-24.24-12.57-24.24-28.52,0-19.14,10.48-23.87,19.41-23.87,12.94,0,23.24,10.57,23.24,27.7,0,22.05-12.76,24.69-18.41,24.69Zm39.57-19.32c0,7.11,0,13.21-.36,16.49-.27,2.28-.73,3.74-2.37,4.1a11.78,11.78,0,0,1-2.82.27c-1,0-1.28.46-1.28.82,0,.55.55.82,1.55.82,3.19,0,8.29-.27,9.84-.27,1.18,0,7.84.27,12.48.27,1,0,1.64-.27,1.64-.82a.93.93,0,0,0-1-.82,30.34,30.34,0,0,1-3.92-.27c-2.46-.36-2.82-1.82-3.1-4.1-.36-3.28-.46-9.29-.46-16.49v-1.09a.58.58,0,0,1,.64-.64l7.2.18a1.85,1.85,0,0,1,1.46.55c1,1.18,4.37,6.38,7.56,10.57,4.46,6,7.47,9.66,10.93,11.39,2.1,1.09,4.28,1.55,8.75,1.55h7.65c1,0,1.55-.18,1.55-.82a.93.93,0,0,0-1-.82,7.48,7.48,0,0,1-1.91-.18c-1.28-.27-4.1-.64-8.57-5.1-4.83-4.83-10.48-11.85-17.59-20.59,7.84-6.29,11.12-11.39,11.12-17.13a13.54,13.54,0,0,0-5.65-10.66c-4.28-2.82-10.11-3.28-15.22-3.28-2.46,0-9.75.18-12.48.18-1.64,0-6.74-.18-10.93-.18-1.18,0-1.82.18-1.82.73s.55.82,1.37.82a14.78,14.78,0,0,1,3.19.27c2.55.73,3.28,1.55,3.46,4.19.09,2.46.09,4.65.09,16.4v13.67ZM461.45,328c0-.64.18-.91.73-1.09a29,29,0,0,1,4.74-.27c4.74,0,12.21,2.82,12.21,13.76,0,6.38-2.73,9.75-5.19,11.48-1.37,1-2.46,1.28-5.65,1.28a22,22,0,0,1-6.1-.73c-.55-.27-.73-.55-.73-1.37V328Zm47.5,30.71c0,7.11,0,13.21-.36,16.49-.27,2.28-.73,3.74-2.37,4.1a11.79,11.79,0,0,1-2.82.27c-1,0-1.28.46-1.28.82,0,.55.55.82,1.55.82,1.64,0,3.64-.09,5.56-.18s3.64-.09,4.56-.09c2,0,4.92.18,8.11.46s6.65.46,9.57.46c14.76,0,23.24-5.47,26.88-9.11a30,30,0,0,0,8.75-21.6c0-9.2-3.55-15.67-7.56-19.68-8.75-8.84-22.23-8.84-32.26-8.84-4.83,0-10.57.18-13,.18-2.28,0-7.38-.18-11.57-.18-1.18,0-1.82.18-1.82.73s.55.82,1.37.82a14.78,14.78,0,0,1,3.19.27c2.55.73,3.28,1.55,3.46,4.19.09,2.46.09,4.65.09,16.4v13.67Zm10.75-14.85c0-6.1,0-12.48.09-15.13a1.36,1.36,0,0,1,1-1.55,17,17,0,0,1,4.92-.55c6.29,0,15,.82,22.41,7.38,3.55,3.1,7.47,9.48,7.47,19.32,0,8-1.64,14.94-6.83,19.23-4.83,4-10.21,5.28-17.49,5.28-6.29,0-9.48-1.64-10.48-3.1-.64-.82-.82-3.55-.91-5.47-.09-1.55-.18-7.47-.18-15.67v-9.75Z"/><path class="cls-5" d="M163.92,326.75v28.82a25.62,25.62,0,0,1-7.55,18.14l0,0a25.62,25.62,0,0,1-18.14,7.55h0a25.62,25.62,0,0,1-18.14-7.55l0,0a25.62,25.62,0,0,1-7.55-18.14V326.75h12.78v28.82a12.94,12.94,0,0,0,12.93,12.93h0a12.94,12.94,0,0,0,12.93-12.93V326.75Z"/><polygon class="cls-4" points="104.27 378.73 104.27 305.03 90.46 305.03 90.46 336.13 57.92 336.13 57.92 305.03 44 305.03 44 378.73 57.92 378.73 57.92 348.99 90.46 348.99 90.46 378.73 104.27 378.73 104.27 378.73"/><path class="cls-5" d="M198.79,327.15a27,27,0,0,1,19.11,7.93h0a27,27,0,0,1,0,38.21h0a27,27,0,0,1-38.21,0h0a27,27,0,0,1-7.93-19.11V305h12.78v26.21a26.87,26.87,0,0,1,14.27-4.09Zm10.09,16.94a14.34,14.34,0,0,0-20.19,0l0,0a14.34,14.34,0,0,0,0,20.19l0,0a14.34,14.34,0,0,0,20.19,0l0,0a14.34,14.34,0,0,0,0-20.19l0,0Z"/><path class="cls-4" d="M247.56,335.26H235.67c.33-6.94,2.49-12.4,6.53-16.37s9.19-6,15.51-6A20.92,20.92,0,0,1,268,315.39a18.43,18.43,0,0,1,7.15,7.11,18.76,18.76,0,0,1,2.68,9.46,28.08,28.08,0,0,1-3.25,12.31q-3.26,6.59-11.92,15.58l-7.2,7.6h22.9v11.26H233.88v-5.84l19.86-20.25q7.2-7.28,9.58-11.71a17.12,17.12,0,0,0,2.38-8,8.27,8.27,0,0,0-2.46-6.14,8.72,8.72,0,0,0-6.35-2.41,8.46,8.46,0,0,0-6.56,2.93,12.24,12.24,0,0,0-2.79,8Z"/></svg>